<svg width="80" height="80" viewBox="0 0 80 80" fill="none" xmlns="http://www.w3.org/2000/svg">
<circle cx="40" cy="40" r="40" fill="#2BB381"/>
<path d="M39.6999 62.7166C27.0144 62.7166 16.6836 52.3858 16.6836 39.7002C16.6836 27.0146 27.0144 16.6079 39.6999 16.6079C52.3855 16.6079 62.7163 26.9387 62.7163 39.6243C62.7163 52.3098 52.3855 62.7166 39.6999 62.7166ZM39.6999 19.6464C28.6855 19.6464 19.6461 28.6858 19.6461 39.7002C19.6461 50.7146 28.6096 59.6781 39.624 59.6781C50.6384 59.6781 59.6019 50.7146 59.6019 39.7002C59.6019 28.6858 50.7144 19.6464 39.6999 19.6464Z" fill="white"/>
<path d="M40.0796 52.3857H39.6998C32.0277 52.3857 28.5335 46.6886 27.8498 43.7261C27.6219 42.8905 28.1536 42.0549 28.9892 41.903C29.8248 41.6751 30.6604 42.2069 30.8123 43.0424C30.8883 43.2703 32.5594 49.4232 39.7758 49.4232H40.1556C47.3719 49.4232 49.0431 43.3463 49.119 43.0424C49.3469 42.2069 50.1825 41.7511 50.9421 41.979C51.7777 42.2069 52.2335 42.9665 52.0815 43.8021C51.17 46.7646 47.7517 52.3857 40.0796 52.3857Z" fill="white"/>
<path d="M31.7241 37.8769C33.1924 37.8769 34.3827 36.6866 34.3827 35.2182C34.3827 33.7499 33.1924 32.5596 31.7241 32.5596C30.2557 32.5596 29.0654 33.7499 29.0654 35.2182C29.0654 36.6866 30.2557 37.8769 31.7241 37.8769Z" fill="white"/>
<path d="M47.4482 37.8769C48.9165 37.8769 50.1069 36.6866 50.1069 35.2182C50.1069 33.7499 48.9165 32.5596 47.4482 32.5596C45.9799 32.5596 44.7896 33.7499 44.7896 35.2182C44.7896 36.6866 45.9799 37.8769 47.4482 37.8769Z" fill="white"/>
</svg>
