<svg width="80" height="80" viewBox="0 0 80 80" fill="none" xmlns="http://www.w3.org/2000/svg">
<circle cx="40" cy="40" r="40" fill="#2BB381"/>
<g clip-path="url(#clip0)">
<path d="M25.3775 63.9402C24.8743 63.7226 24.3116 63.1783 24.0146 62.6219C23.8041 62.2274 23.7737 61.9613 23.7365 60.1864C23.7084 58.8477 23.6529 58.1669 23.5674 58.1123C23.4974 58.0676 22.7536 58.0302 21.9146 58.0293L20.3892 58.0276L20.4221 47.6489L20.455 37.2702L21.4172 30.0743C21.9464 26.1165 22.4555 22.6256 22.5485 22.3167C22.7976 21.4888 23.5048 20.4713 24.2357 19.8892C24.984 19.2931 26.9275 18.3237 28.2005 17.9115C29.3753 17.5311 31.5068 17.0249 33.3483 16.689C38.3431 15.7778 42.4224 15.8245 47.6982 16.8532C53.7311 18.0294 56.7423 19.6578 57.5888 22.2018C57.7417 22.661 58.1288 25.2885 58.7569 30.1285L59.6964 37.3682V47.6979V58.0276L58.2295 58.0293C57.4227 58.0302 56.7055 58.0676 56.6355 58.1123C56.5508 58.1665 56.4933 58.8396 56.463 60.131C56.4104 62.3761 56.3023 62.7624 55.5387 63.4345C54.0697 64.7275 51.4951 64.119 50.9662 62.3537C50.8943 62.1136 50.8399 61.166 50.8399 60.1537C50.8399 58.6848 50.8096 58.3453 50.6659 58.2016C50.5102 58.0459 49.3997 58.0276 40.1014 58.0276C30.803 58.0276 29.6925 58.0459 29.5368 58.2016C29.3927 58.3457 29.3627 58.692 29.3618 60.2219C29.3608 61.9302 29.3412 62.1098 29.0997 62.6219C28.7886 63.2815 28.4825 63.5822 27.813 63.8857C27.2029 64.1623 25.9555 64.1902 25.3775 63.9402ZM27.4909 51.5655C28.5388 51.191 29.268 50.1509 29.268 49.0308C29.268 47.4731 28.1049 46.2927 26.5699 46.2927C25.8071 46.2927 25.346 46.4649 24.7817 46.9603C24.1372 47.5261 23.8895 48.0939 23.8895 49.005C23.8895 49.8657 24.1184 50.436 24.6754 50.9635C25.3894 51.6397 26.5745 51.8931 27.4909 51.5655ZM54.8324 51.4129C56.8333 50.3981 56.8333 47.612 54.8324 46.5972C53.4146 45.8781 51.6969 46.5 51.0864 47.9533C50.8382 48.5443 50.8761 49.6117 51.1668 50.212C51.8191 51.5596 53.474 52.1018 54.8324 51.4129ZM55.0535 39.317C55.3783 39.2554 55.7559 39.0999 55.8926 38.9715C56.1671 38.7136 56.3791 37.897 56.3056 37.3809C56.2795 37.1982 55.9143 34.575 55.4939 31.5514C54.7068 25.8904 54.6216 25.4983 54.0695 24.999C53.4997 24.4837 53.7705 24.4936 40.1781 24.4885C30.9813 24.485 27.2167 24.5191 26.8595 24.609C26.2075 24.7732 25.752 25.2417 25.5479 25.9581C25.2739 26.9201 23.8108 37.7323 23.8943 38.1778C24.0053 38.7695 24.47 39.2276 25.0552 39.3223C25.8488 39.4506 54.3753 39.4456 55.0535 39.317ZM48.4597 22.0509C48.9706 21.9325 49.2538 21.634 49.3521 21.1099C49.4399 20.6422 49.1587 20.0213 48.7813 19.8493C48.5819 19.7585 46.132 19.7239 40.0131 19.7257C32.1347 19.728 31.5046 19.742 31.2855 19.9195C30.7643 20.3417 30.6612 20.9854 31.0205 21.5746C31.15 21.7871 31.3625 21.9589 31.5459 21.9994C31.7152 22.0369 31.9036 22.0841 31.9645 22.1044C32.2355 22.1948 48.06 22.1435 48.4597 22.0509Z" fill="white"/>
</g>
<defs>
<clipPath id="clip0">
<rect width="39.9649" height="48.6" fill="white" transform="translate(20 15.7002)"/>
</clipPath>
</defs>
</svg>
