<svg width="80" height="80" viewBox="0 0 80 80" fill="none" xmlns="http://www.w3.org/2000/svg">
<circle cx="40" cy="40" r="40" fill="#2BB381"/>
<path d="M56.5312 24.4688H52.9688V28.0312H56.5312V24.4688Z" fill="white"/>
<path d="M28.0312 19.125H24.4688V22.6875H28.0312V19.125Z" fill="white"/>
<path d="M35.1562 29.8125H31.5938V33.375H35.1562V29.8125Z" fill="white"/>
<path d="M61.875 29.8125V45.4875C60.4055 44.4633 58.6242 43.6172 56.5312 42.9047V31.5938H52.9688V41.8805C49.0945 40.9453 44.775 40.5 40.5 40.5C38.7188 40.5 36.9375 40.5891 35.1562 40.7227V36.9375H31.5938V41.168C30.3914 41.3461 29.1891 41.6133 28.0312 41.8805V26.25H24.4688V42.9047C22.3758 43.6172 20.5945 44.4633 19.125 45.4875V36.9375H15.5625V51.1875C15.5625 58.1344 28.432 61.875 40.5 61.875C52.568 61.875 65.4375 58.1344 65.4375 51.1875V29.8125H61.875ZM19.125 51.1875C19.125 48.9609 23.7117 46.0664 31.5938 44.775V57.6445C23.7117 56.3086 19.125 53.4141 19.125 51.1875ZM51.1875 57.2883V47.625H47.625V57.8672C45.443 58.1344 43.0828 58.3125 40.5 58.3125C38.6297 58.3125 36.8484 58.2234 35.1562 58.0898V44.2852C36.8484 44.1516 38.6297 44.0625 40.5 44.0625C53.7258 44.0625 61.875 48.2039 61.875 51.1875C61.875 53.2359 57.9562 55.8633 51.1875 57.2883Z" fill="white"/>
</svg>
