<svg width="60" height="60" viewBox="0 0 60 60" fill="none" xmlns="http://www.w3.org/2000/svg">
<circle cx="30" cy="30" r="30" fill="#2BB381"/>
<g clip-path="url(#clip0)">
<path d="M19.0332 47.9548C18.6559 47.7916 18.2338 47.3833 18.0111 46.9661C17.8532 46.6702 17.8304 46.4706 17.8025 45.1394C17.7814 44.1354 17.7398 43.6248 17.6757 43.5839C17.6232 43.5503 17.0653 43.5223 16.4361 43.5216L15.292 43.5203L15.3167 35.7363L15.3414 27.9523L16.063 22.5553C16.4599 19.587 16.8417 16.9688 16.9115 16.7371C17.0983 16.1162 17.6287 15.3531 18.1769 14.9165C18.7381 14.4695 20.1958 13.7424 21.1505 13.4333C22.0316 13.148 23.6303 12.7683 25.0113 12.5164C28.7574 11.833 31.817 11.868 35.7738 12.6395C40.2984 13.5217 42.5568 14.743 43.1917 16.651C43.3064 16.9954 43.5967 18.966 44.0678 22.596L44.7724 28.0258V35.773V43.5203L43.6723 43.5216C43.0672 43.5223 42.5292 43.5503 42.4768 43.5839C42.4132 43.6245 42.3701 44.1293 42.3474 45.0979C42.3079 46.7817 42.2268 47.0714 41.6541 47.5755C40.5524 48.5453 38.6215 48.0889 38.2248 46.7649C38.1708 46.5849 38.13 45.8741 38.13 45.1149C38.13 44.0132 38.1073 43.7586 37.9995 43.6508C37.8828 43.534 37.0499 43.5203 30.0762 43.5203C23.1024 43.5203 22.2695 43.534 22.1528 43.6508C22.0446 43.7589 22.0221 44.0186 22.0215 45.1661C22.0207 46.4473 22.006 46.582 21.8249 46.9661C21.5916 47.4608 21.362 47.6863 20.8599 47.9139C20.4023 48.1214 19.4668 48.1423 19.0332 47.9548ZM20.6183 38.6738C21.4042 38.3929 21.9511 37.6128 21.9511 36.7727C21.9511 35.6045 21.0788 34.7192 19.9276 34.7192C19.3554 34.7192 19.0096 34.8483 18.5864 35.2199C18.103 35.6442 17.9172 36.0701 17.9172 36.7534C17.9172 37.3989 18.0889 37.8266 18.5067 38.2223C19.0421 38.7294 19.931 38.9195 20.6183 38.6738ZM41.1244 38.5593C42.6251 37.7982 42.6251 35.7086 41.1244 34.9475C40.061 34.4082 38.7728 34.8746 38.3149 35.9646C38.1287 36.4078 38.1572 37.2084 38.3752 37.6587C38.8645 38.6694 40.1056 39.076 41.1244 38.5593ZM41.2903 29.4874C41.5339 29.4412 41.8171 29.3246 41.9196 29.2282C42.1254 29.0348 42.2844 28.4224 42.2293 28.0353C42.2098 27.8983 41.9358 25.9309 41.6206 23.6632C41.0302 19.4174 40.9663 19.1233 40.5522 18.7488C40.1249 18.3624 40.328 18.3699 30.1337 18.366C23.2361 18.3634 20.4127 18.3889 20.1447 18.4564C19.6558 18.5795 19.3141 18.9309 19.1611 19.4682C18.9555 20.1897 17.8582 28.2988 17.9209 28.633C18.0041 29.0767 18.3526 29.4203 18.7915 29.4913C19.3867 29.5876 40.7816 29.5838 41.2903 29.4874ZM36.3449 16.5378C36.7281 16.449 36.9405 16.2251 37.0142 15.8321C37.08 15.4812 36.8692 15.0156 36.5861 14.8866C36.4366 14.8185 34.5991 14.7926 30.01 14.7939C24.1012 14.7956 23.6286 14.8061 23.4643 14.9392C23.0733 15.2559 22.996 15.7387 23.2655 16.1806C23.3626 16.34 23.522 16.4688 23.6595 16.4992C23.7865 16.5273 23.9278 16.5627 23.9735 16.5779C24.1768 16.6457 36.0452 16.6073 36.3449 16.5378Z" fill="#283648"/>
</g>
<defs>
<clipPath id="clip0">
<rect width="29.9737" height="36.45" fill="white" transform="translate(15 11.7749)"/>
</clipPath>
</defs>
</svg>
