<svg width="216" height="216" viewBox="0 0 216 216" fill="none" xmlns="http://www.w3.org/2000/svg">
<g filter="url(#filter0_d)">
<path d="M108 60C117.494 60 126.774 62.8152 134.667 68.0895C142.561 73.3638 148.713 80.8603 152.346 89.6312C155.979 98.402 156.93 108.053 155.078 117.364C153.226 126.675 148.654 135.228 141.941 141.941C135.228 148.654 126.675 153.226 117.364 155.078C108.053 156.93 98.402 155.979 89.6312 152.346C80.8603 148.713 73.3638 142.561 68.0895 134.667C62.8152 126.774 60 117.494 60 108C60 95.2696 65.0571 83.0606 74.0589 74.0589C83.0606 65.0571 95.2696 60 108 60V60Z" fill="white"/>
</g>
<path d="M122.865 106.833L101.389 94.753C101.185 94.6381 100.954 94.5786 100.72 94.5806C100.485 94.5826 100.256 94.6459 100.053 94.7642C99.8511 94.8825 99.6833 95.0518 99.5668 95.2551C99.4502 95.4583 99.3889 95.6886 99.389 95.923V120.081C99.3892 120.315 99.4507 120.545 99.5673 120.748C99.6839 120.951 99.8517 121.121 100.054 121.239C100.256 121.357 100.486 121.42 100.72 121.423C100.954 121.425 101.185 121.366 101.389 121.251L122.865 109.171C123.073 109.054 123.246 108.884 123.366 108.678C123.486 108.473 123.55 108.239 123.55 108C123.55 107.762 123.486 107.528 123.366 107.322C123.246 107.117 123.073 106.947 122.865 106.83V106.833Z" fill="#0D2E4D"/>
<defs>
<filter id="filter0_d" x="20" y="40" width="176" height="176" filterUnits="userSpaceOnUse" color-interpolation-filters="sRGB">
<feFlood flood-opacity="0" result="BackgroundImageFix"/>
<feColorMatrix in="SourceAlpha" type="matrix" values="0 0 0 0 0 0 0 0 0 0 0 0 0 0 0 0 0 0 127 0"/>
<feOffset dy="20"/>
<feGaussianBlur stdDeviation="20"/>
<feColorMatrix type="matrix" values="0 0 0 0 0 0 0 0 0 0 0 0 0 0 0 0 0 0 0.161 0"/>
<feBlend mode="normal" in2="BackgroundImageFix" result="effect1_dropShadow"/>
<feBlend mode="normal" in="SourceGraphic" in2="effect1_dropShadow" result="shape"/>
</filter>
</defs>
</svg>
